<svg width="36" height="36" viewBox="0 0 36 36" fill="none" xmlns="http://www.w3.org/2000/svg">
<g clip-path="url(#clip0_104_105)">
<path d="M19.0616 7.97786C19.3209 6.93723 20.3875 6.30074 21.4425 6.55652C22.4975 6.81231 23.1427 7.86439 22.8834 8.9051L18.0676 28.0221C17.8082 29.0628 16.7417 29.6993 15.6867 29.4435C14.6317 29.1877 13.9865 28.1356 14.2458 27.0949L19.0616 7.97786ZM10.7331 23.5377C11.5499 24.2429 11.6328 25.4682 10.9179 26.2739C10.203 27.0794 8.96076 27.1612 8.14408 26.4561L0.671053 19.9972C-0.145627 19.292 -0.228525 18.0667 0.486412 17.2611C0.547795 17.192 0.612975 17.1285 0.680967 17.0704L8.14408 10.6201C8.96076 9.91487 10.203 9.99664 10.9179 10.8022C11.6328 11.6079 11.5499 12.8332 10.7331 13.5384L4.94851 18.538L10.7331 23.5377ZM27.8559 26.4561C27.0392 27.1612 25.797 27.0794 25.0821 26.2739C24.3672 25.4682 24.4501 24.2429 25.2669 23.5377L31.0515 18.538L25.2669 13.5384C24.4501 12.8332 24.3672 11.6079 25.0821 10.8022C25.797 9.99664 27.0392 9.91487 27.8559 10.6201L35.319 17.0704C35.3882 17.1295 35.4532 17.1932 35.5136 17.2611C36.2285 18.0667 36.1456 19.292 35.3289 19.9972L27.8559 26.4561Z" fill="#428BF7"/>
</g>
<defs>
<clipPath id="clip0_104_105">
<rect width="36" height="23" fill="white" transform="translate(0 6.5)"/>
</clipPath>
</defs>
</svg>
