<svg width="32" height="32" viewBox="0 0 32 32" fill="none" xmlns="http://www.w3.org/2000/svg">
<g clip-path="url(#clip0_123_815)">
<path d="M12.7187 20.3069C10.5872 20.3069 8.7805 19.5664 7.29873 18.0855C5.81784 16.6055 5.07739 14.7993 5.07739 12.6669C5.07739 10.5344 5.81784 8.72775 7.29873 7.24686C8.77961 5.76597 10.5863 5.02597 12.7187 5.02686C14.8512 5.02775 16.6574 5.76819 18.1374 7.24819C19.6174 8.72819 20.3578 10.5344 20.3587 12.6669C20.3587 13.5931 20.1947 14.4895 19.8667 15.3562C19.5387 16.2229 19.1076 16.9642 18.5734 17.5802L26.4521 25.4562C26.5765 25.5806 26.6432 25.734 26.6521 25.9162C26.6601 26.0966 26.5934 26.258 26.4521 26.4002C26.3098 26.5424 26.1525 26.6135 25.9801 26.6135C25.8076 26.6135 25.6503 26.5424 25.5081 26.4002L17.6307 18.5229C16.9641 19.0909 16.1974 19.5304 15.3307 19.8415C14.4641 20.1526 13.5929 20.3082 12.7174 20.3082M12.7174 18.9749C14.4863 18.9749 15.9801 18.366 17.1987 17.1482C18.4165 15.9304 19.0254 14.4366 19.0254 12.6669C19.0254 10.8971 18.4169 9.40375 17.2001 8.18686C15.9832 6.96997 14.4898 6.36108 12.7201 6.36019C10.9503 6.36019 9.4565 6.96908 8.23873 8.18686C7.02095 9.40463 6.41161 10.898 6.41073 12.6669C6.40984 14.4357 7.01873 15.9291 8.23739 17.1469C9.45606 18.3646 10.9494 18.9735 12.7174 18.9735" fill="#202020"/>
<path d="M25.9801 26.8721L17.6307 18.5227C16.9641 19.0907 16.1974 19.5303 15.3307 19.8414C14.4641 20.1525 13.5929 20.3081 12.7174 20.3081C10.5823 20.3081 8.77517 19.5689 7.29606 18.0907C5.81695 16.6125 5.07739 14.8058 5.07739 12.6707C5.07739 10.5356 5.81606 8.72806 7.29339 7.24806C8.77073 5.76806 10.5769 5.02717 12.7121 5.02539C14.8472 5.02362 16.6552 5.76317 18.1361 7.24406C19.6169 8.72495 20.3574 10.5325 20.3574 12.6667C20.3574 13.5929 20.1934 14.4894 19.8654 15.3561C19.5374 16.2227 19.1063 16.9641 18.5721 17.5801L26.9214 25.9281L25.9801 26.8721ZM12.7187 18.9734C14.4876 18.9734 15.9809 18.3645 17.1987 17.1467C18.4165 15.9289 19.0254 14.4352 19.0254 12.6654C19.0254 10.8956 18.4165 9.40228 17.1987 8.18539C15.9809 6.9685 14.4876 6.35962 12.7187 6.35873C10.9498 6.35784 9.45606 6.96673 8.23739 8.18539C7.01873 9.40406 6.40984 10.8974 6.41073 12.6654C6.41161 14.4334 7.0205 15.9267 8.23739 17.1454C9.45428 18.3641 10.9476 18.973 12.7174 18.9721" fill="#202020"/>
</g>
<defs>
<clipPath id="clip0_123_815">
<rect width="32" height="32" fill="white"/>
</clipPath>
</defs>
</svg>
